# xmcd
#
# Track frame offsets:
#	150
#	14147
#	26680
#	46766
#	58199
#	72868
#	85687
#	98044
#	113838
#	129501
#	148022
#	163988
#	179964
#	193075
#	217783
#
# Disc length: 3220 seconds
#
# Revision: 0
# Processed by: cddbd v1.5.2PL0 Copyright (c) Steve Scherf et al.
# Submitted via: EasyCDDAExtractor 16.0.6.1
#
DISCID=dc0c920f
DTITLE=Velha Guarda Musical Camisa Verde e Branco - Canto Pra Viver
DYEAR=1900
DGENRE=
TTITLE0=Tributo a velha guarda
TTITLE1=Canto pra viver
TTITLE2=Nata do samba
TTITLE3=Meu surdo deu sinal
TTITLE4=Saudade de você
TTITLE5=Sampa só samba
TTITLE6=Se eu chorar
TTITLE7=Quando ela falar
TTITLE8=Minha preta
TTITLE9=Baiana da ribeira
TTITLE10=Quem censurar meu proceder
TTITLE11=Lamento negro
TTITLE12=Se fosse pra chorar
TTITLE13=Maria e João - Tem pó, não tem açúcar - Rosa
TTITLE14=Pot-Pourri de sambas-enredos
EXTD=
EXTT0=
EXTT1=
EXTT2=
EXTT3=
EXTT4=
EXTT5=
EXTT6=
EXTT7=
EXTT8=
EXTT9=
EXTT10=
EXTT11=
EXTT12=
EXTT13=
EXTT14=
PLAYORDER=
